<svg xmlns="http://www.w3.org/2000/svg" width="256" height="256" viewBox="0 0 100 100"><rect width="100" height="100" rx="50" fill="#37517e"></rect><path d="M42.08 40.82Q40.16 53.06 36.74 64.58Q33.32 76.10 29.24 81.50Q25.16 86.90 19.40 86.90L19.40 86.90Q15.20 86.90 15.20 83.66L15.20 83.66Q15.20 81.02 17.00 79.94Q18.80 78.86 21.26 78.32Q23.72 77.78 24.44 77.06L24.44 77.06Q28.88 72.38 32.66 60.32Q36.44 48.26 38.12 35.78L38.12 35.78Q32.96 30.38 32.96 27.02Q32.96 23.66 34.88 19.28Q36.80 14.90 39.44 14.90L39.44 14.90Q41 14.90 42.20 18.74Q43.40 22.58 43.40 28.34L43.40 28.34Q49.64 36.26 53.12 42.02L53.12 42.02Q56.84 29.78 63.32 21.44Q69.80 13.10 78.20 13.10L78.20 13.10Q81.20 13.10 83 15.26Q84.80 17.42 84.80 20.06Q84.80 22.70 83.78 24.80Q82.76 26.90 81.08 26.90Q79.40 26.90 79.40 25.22Q79.40 23.54 78.38 22.64Q77.36 21.74 75.80 21.74L75.80 21.74Q70.88 21.74 66.56 26.90L66.56 26.90Q60.44 34.22 56.36 47.78L56.36 47.78Q64.28 64.82 64.28 75.38L64.28 75.38Q64.28 79.70 62.36 83.00Q60.44 86.30 56.72 86.30L56.72 86.30Q48.80 86.30 48.80 72.86L48.80 72.86Q48.80 63.38 50.24 54.86L50.24 54.86Q46.64 47.18 42.08 40.82L42.08 40.82ZM53.12 62.78L53.12 62.78Q52.52 67.10 52.52 71.66Q52.52 76.22 53.12 78.74Q53.72 81.26 54.44 81.26L54.44 81.26Q55.88 81.26 55.88 76.34Q55.88 71.42 53.12 62.78Z" fill="#fff"></path></svg>